<svg height="512pt" viewBox="0 0 512 512" width="512pt" xmlns="http://www.w3.org/2000/svg" xmlns:xlink="http://www.w3.org/1999/xlink"><linearGradient id="a" gradientTransform="matrix(1 0 0 -1 0 -16582)" gradientUnits="userSpaceOnUse" x1="0" x2="512" y1="-16838" y2="-16838"><stop offset="0" stop-color="#00f38d"/><stop offset="1" stop-color="#009eff"/></linearGradient><path d="m512 256c0 141.386719-114.613281 256-256 256s-256-114.613281-256-256 114.613281-256 256-256 256 114.613281 256 256zm0 0" fill="url(#a)"/><path d="m256 56c-110.28125 0-200 89.71875-200 200s89.71875 200 200 200 200-89.71875 200-200-89.71875-200-200-200zm-169.332031 215h62.121093c.835938 21.742188 3.488282 42.804688 7.808594 62.5h-51.878906c-9.792969-19.039062-16.085938-40.15625-18.050781-62.5zm184.332031-122.5v-58.898438c13.394531 6.375 26.355469 21.019532 36.992188 42.292969 2.628906 5.257813 5.066406 10.808594 7.3125 16.605469zm53.636719 30c4.730469 19.371094 7.636719 40.492188 8.546875 62.5h-62.183594v-62.5zm-83.636719-88.898438v58.898438h-44.304688c2.246094-5.796875 4.683594-11.347656 7.3125-16.605469 10.636719-21.273437 23.597657-35.917969 36.992188-42.292969zm0 88.898438v62.5h-62.183594c.910156-22.007812 3.816406-43.128906 8.546875-62.5zm-92.210938 62.5h-62.121093c1.964843-22.34375 8.257812-43.460938 18.050781-62.5h51.878906c-4.320312 19.695312-6.96875 40.757812-7.808594 62.5zm30.027344 30h62.183594v62.5h-53.636719c-4.730469-19.371094-7.636719-40.492188-8.546875-62.5zm62.183594 92.5v58.898438c-13.394531-6.375-26.355469-21.019532-36.992188-42.292969-2.628906-5.257813-5.066406-10.808594-7.3125-16.605469zm30 58.898438v-58.898438h44.304688c-2.246094 5.796875-4.683594 11.347656-7.3125 16.605469-10.636719 21.273437-23.597657 35.917969-36.992188 42.292969zm0-88.898438v-62.5h62.183594c-.910156 22.007812-3.816406 43.128906-8.546875 62.5zm92.210938-62.5h62.117187c-1.960937 22.34375-8.253906 43.460938-18.046875 62.5h-51.878906c4.320312-19.695312 6.96875-40.757812 7.808594-62.5zm0-30c-.839844-21.742188-3.492188-42.804688-7.808594-62.5h51.878906c9.792969 19.039062 16.085938 40.15625 18.046875 62.5zm24.382812-92.5h-40.421875c-3.570313-10.660156-7.695313-20.71875-12.347656-30.023438-3.25-6.496093-6.703125-12.515624-10.339844-18.054687 24.652344 10.894531 46.246094 27.476563 63.109375 48.078125zm-200.078125-48.078125c-3.632813 5.539063-7.089844 11.558594-10.339844 18.054687-4.652343 9.304688-8.777343 19.363282-12.347656 30.023438h-40.421875c16.863281-20.601562 38.457031-37.183594 63.109375-48.078125zm-63.109375 263.078125h40.421875c3.570313 10.660156 7.695313 20.71875 12.347656 30.023438 3.25 6.496093 6.703125 12.515624 10.339844 18.054687-24.652344-10.894531-46.246094-27.476563-63.109375-48.078125zm200.078125 48.078125c3.632813-5.539063 7.089844-11.558594 10.339844-18.054687 4.652343-9.304688 8.777343-19.363282 12.347656-30.023438h40.421875c-16.863281 20.601562-38.457031 37.183594-63.109375 48.078125zm0 0" fill="#fff"/></svg>