<?xml version="1.0" encoding="iso-8859-1"?>
<!-- Generator: Adobe Illustrator 19.0.0, SVG Export Plug-In . SVG Version: 6.00 Build 0)  -->
<svg version="1.1" id="Capa_1" xmlns="http://www.w3.org/2000/svg" xmlns:xlink="http://www.w3.org/1999/xlink" x="0px" y="0px"
	 viewBox="0 0 512 512" style="enable-background:new 0 0 512 512;" xml:space="preserve">
<path style="fill:#D2EB5A;" d="M469.344,85.122v263.775c0,34.641-19.11,65.861-49.911,81.612L297.871,501.96l-0.43,0.22
	C284.471,508.73,270.23,512,256,512c-14.23,0-28.471-3.27-41.441-9.82l-0.84-0.46L92.577,430.508
	c-30.811-15.75-49.921-46.971-49.921-81.612V85.122c0-14.17,9.52-26.611,23.18-30.321L251.04,0.67l0.19-0.05
	C252.79,0.21,254.39,0,256,0c1.61,0,3.21,0.21,4.77,0.62l0.39,0.11l185.004,54.071C459.824,58.511,469.344,70.951,469.344,85.122z"
	/>
<path style="fill:#B4D241;" d="M469.344,85.122v263.775c0,34.641-19.11,65.861-49.911,81.612L297.871,501.96l-0.43,0.22
	C284.471,508.73,270.23,512,256,512V0c1.61,0,3.21,0.21,4.77,0.62l0.39,0.11l185.004,54.071
	C459.824,58.511,469.344,70.951,469.344,85.122z"/>
<g>
	<path style="fill:#FFFFFF;" d="M217.189,234.865c-2.08-4.07-4.67-7.23-7.77-9.49c-3.09-2.26-6.48-4.33-10.15-6.24
		c-3.67-1.9-7.05-3.45-10.15-4.64c-3.1-1.2-5.69-2.63-7.76-4.32c-2.08-1.67-3.12-3.53-3.12-5.57c0-2.21,1.1-4.09,3.31-5.64
		c2.22-1.55,5.53-2.32,9.96-2.32c4.16,0,7.96,0.84,11.41,2.52s5.71,2.52,6.77,2.52c2.56,0,4.58-1.26,6.04-3.77
		c1.46-2.52,2.19-4.95,2.19-7.29c0-2.46-1-4.55-2.99-6.29c-1.99-1.73-4.56-2.98-7.7-3.75c-3.14-0.78-5.97-1.3-8.49-1.58
		c-2.52-0.27-4.93-0.41-7.23-0.41c-9.38,0-17.39,2.32-24.02,6.97c-6.64,4.64-9.95,11.65-9.95,21.03c0,5.75,1.43,10.71,4.31,14.87
		c2.87,4.16,6.39,7.36,10.55,9.62c4.16,2.25,8.29,4.29,12.41,6.1c4.11,1.82,7.6,3.83,10.48,6.04c2.87,2.21,4.31,4.78,4.31,7.7
		c0,2.92-1.28,5.11-3.85,6.57c-2.56,1.45-5.57,2.18-9.02,2.18c-2.74,0-5.35-0.53-7.83-1.6c-2.48-1.08-4.4-2.26-5.77-3.57
		c-1.37-1.31-2.88-2.49-4.51-3.57c-1.64-1.07-3.12-1.61-4.45-1.61c-2.39,0-4.49,1.24-6.3,3.72c-1.82,2.48-2.72,4.96-2.72,7.43
		c0,4.43,3.18,8.41,9.55,11.94c6.37,3.54,13.85,5.31,22.43,5.31c9.91,0,17.91-2.54,24.02-7.62c6.1-5.08,9.16-12.18,9.16-21.31
		C220.309,243.575,219.259,238.935,217.189,234.865z"/>
	<path style="fill:#FFFFFF;" d="M287.921,234.865c-2.08-4.07-4.67-7.23-7.77-9.49c-3.09-2.26-6.48-4.33-10.15-6.24
		c-3.67-1.9-7.05-3.45-10.15-4.64c-1.39-0.54-2.67-1.12-3.85-1.76c-1.46-0.77-2.77-1.63-3.91-2.56c-2.08-1.67-3.12-3.53-3.12-5.57
		c0-2.21,1.1-4.09,3.32-5.64c1-0.71,2.24-1.26,3.71-1.63c1.75-0.46,3.83-0.69,6.24-0.69c4.16,0,7.96,0.84,11.41,2.52
		c3.45,1.68,5.71,2.52,6.77,2.52c2.56,0,4.58-1.26,6.04-3.77c1.46-2.52,2.19-4.95,2.19-7.29c0-2.46-1-4.55-2.99-6.29
		c-1.99-1.73-4.56-2.98-7.7-3.75c-3.14-0.78-5.97-1.3-8.49-1.58c-2.52-0.27-4.93-0.41-7.23-0.41c-2.15,0-4.23,0.12-6.24,0.37
		c-6.74,0.82-12.67,3.02-17.78,6.6c-6.64,4.64-9.95,11.65-9.95,21.03c0,5.75,1.43,10.71,4.31,14.87c2.87,4.16,6.39,7.36,10.55,9.62
		c4.16,2.25,8.29,4.29,12.41,6.1c0.15,0.07,0.31,0.14,0.46,0.21c3.91,1.76,7.26,3.7,10.02,5.83c2.88,2.21,4.31,4.78,4.31,7.7
		c0,2.92-1.28,5.11-3.84,6.57c-2.57,1.45-5.58,2.18-9.03,2.18c-0.49,0-0.98-0.02-1.46-0.05c-2.21-0.16-4.34-0.67-6.37-1.55
		c-2.48-1.08-4.4-2.26-5.77-3.57c-1.37-1.31-2.88-2.49-4.51-3.57c-1.64-1.07-3.12-1.61-4.45-1.61c-2.39,0-4.49,1.24-6.3,3.72
		c-1.82,2.48-2.72,4.96-2.72,7.43c0,4.43,3.18,8.41,9.55,11.94c5.91,3.28,12.77,5.04,20.57,5.28c0.62,0.02,1.23,0.03,1.86,0.03
		c9.91,0,17.92-2.54,24.02-7.62c6.1-5.08,9.16-12.18,9.16-21.31C291.041,243.575,290.001,238.935,287.921,234.865z"/>
</g>
<path style="fill:#DCE6EB;" d="M356.592,261.005c-1.06-1.77-2.52-2.65-4.38-2.65h-30.251v-72.731c0-2.03-1.02-3.58-3.06-4.64
	c-2.03-1.06-4.47-1.59-7.3-1.59s-5.26,0.53-7.29,1.59c-2.04,1.06-3.06,2.61-3.06,4.64v84.412c0,2.03,0.89,3.6,2.66,4.71
	c1.77,1.1,3.89,1.66,6.37,1.66h41.931c1.86,0,3.32-0.89,4.38-2.66s1.59-3.89,1.59-6.37
	C358.182,264.905,357.652,262.775,356.592,261.005z"/>
<path style="fill:#FFFFFF;" d="M364.702,311.306c0,8.29-6.72,15-15,15H162.298c-8.28,0-15-6.71-15-15c0-8.28,6.72-15,15-15h187.404
	C357.982,296.306,364.702,303.026,364.702,311.306z"/>
<g>
	<path style="fill:#DCE6EB;" d="M262.24,196.644c-2.41,0-4.49,0.23-6.24,0.69v-18.37c2.01-0.25,4.09-0.37,6.24-0.37
		c2.3,0,4.71,0.14,7.23,0.41c2.52,0.28,5.35,0.8,8.49,1.58c3.14,0.77,5.71,2.02,7.7,3.75c1.99,1.74,2.99,3.83,2.99,6.29
		c0,2.34-0.73,4.77-2.19,7.29c-1.46,2.51-3.48,3.77-6.04,3.77c-1.06,0-3.32-0.84-6.77-2.52S266.4,196.644,262.24,196.644z"/>
	<path style="fill:#DCE6EB;" d="M291.041,248.795c0,9.13-3.06,16.23-9.16,21.31c-6.1,5.08-14.11,7.62-24.02,7.62
		c-0.63,0-1.24-0.01-1.86-0.03v-18.07c0.48,0.03,0.97,0.05,1.46,0.05c3.45,0,6.46-0.73,9.03-2.18c2.56-1.46,3.84-3.65,3.84-6.57
		c0-2.92-1.43-5.49-4.31-7.7c-2.76-2.13-6.11-4.07-10.02-5.83v-24.66c1.18,0.64,2.46,1.22,3.85,1.76c3.1,1.19,6.48,2.74,10.15,4.64
		c3.67,1.91,7.06,3.98,10.15,6.24c3.1,2.26,5.69,5.42,7.77,9.49C290.001,238.935,291.041,243.575,291.041,248.795z"/>
	<path style="fill:#DCE6EB;" d="M364.702,311.306c0,8.29-6.72,15-15,15H256v-30.001h93.702
		C357.982,296.306,364.702,303.026,364.702,311.306z"/>
</g>
<g>
</g>
<g>
</g>
<g>
</g>
<g>
</g>
<g>
</g>
<g>
</g>
<g>
</g>
<g>
</g>
<g>
</g>
<g>
</g>
<g>
</g>
<g>
</g>
<g>
</g>
<g>
</g>
<g>
</g>
</svg>
