<svg id="Capa_1" enable-background="new 0 0 499.154 499.154" height="512" viewBox="0 0 499.154 499.154" width="512" xmlns="http://www.w3.org/2000/svg"><path d="m249.577 111.076c-134.73 0-244.548 106.692-249.571 240.194-.196 5.211 3.951 9.556 9.165 9.556h82.034l-2.823-14.959 69.555-43.325h239.493l14.561 55.207-.846 3.077h78.838c5.215 0 9.362-4.345 9.166-9.556-5.024-133.502-114.841-240.194-249.572-240.194z" fill="#cbc4cc"/><g><path d="m399.512 290.996-56.737-59.683-89.534-27.609-78.36 16.646-66.992 54.706s-14.21 76.029-12.992 76.435 11.44 9.334 11.44 9.334h286.48l19.173-14.613z" fill="#f9f7f8"/><g><path d="m213.205 388.079c-2.659 0-5.234-1.417-6.594-3.916-1.98-3.638-.636-8.192 3.001-10.173l129.578-70.533c3.639-1.981 8.193-.636 10.173 3.002s.636 8.192-3.001 10.173l-129.578 70.533c-1.139.619-2.368.914-3.579.914z" fill="#62dbfb"/></g><circle cx="249.577" cy="360.828" fill="#99e6fc" r="25.911"/><path d="m298.665 299.796h-98.175c-3.529 0-6.39-2.861-6.39-6.39v-23.401c0-3.529 2.861-6.39 6.39-6.39h98.175c3.529 0 6.39 2.861 6.39 6.39v23.401c0 3.53-2.861 6.39-6.39 6.39z" fill="#ee6161"/><path d="m231.04 263.615h37.075v36.181h-37.075z" fill="#e94444"/><g><path d="m249.577 210.37c-4.142 0-7.5-3.358-7.5-7.5v-40.636c0-4.142 3.358-7.5 7.5-7.5s7.5 3.358 7.5 7.5v40.636c0 4.142-3.358 7.5-7.5 7.5z" fill="#f9f7f8"/></g><g><path d="m187.58 223.477c-3.048 0-5.914-1.872-7.035-4.898l-5.391-14.563-9.803-23.193c-1.613-3.815.173-8.215 3.988-9.828 3.814-1.613 8.215.173 9.828 3.988l9.87 23.35c.044.104.086.21.125.316l5.45 14.722c1.438 3.885-.545 8.199-4.43 9.638-.858.318-1.737.468-2.602.468z" fill="#f9f7f8"/></g><g><path d="m134.774 257.008c-1.914 0-3.827-.728-5.291-2.184l-9.45-9.406-18.117-17.602c-2.971-2.887-3.039-7.635-.153-10.606 2.887-2.971 7.635-3.039 10.606-.153l18.182 17.665 9.515 9.469c2.936 2.922 2.947 7.671.025 10.607-1.467 1.473-3.392 2.21-5.317 2.21z" fill="#f9f7f8"/></g><g><path d="m246.746 111.092c-133.425 1.492-241.752 107.619-246.739 240.178-.196 5.211 3.951 9.556 9.165 9.556h36.178c12.549-125.543 95.061-226.524 201.396-249.734z" fill="#b5adb6"/></g><g><path d="m103.096 311.147c-.879 0-1.773-.155-2.644-.484l-14.971-5.642-23.699-9.222c-3.86-1.502-5.772-5.849-4.27-9.709 1.501-3.86 5.85-5.772 9.709-4.27l23.625 9.193 14.896 5.613c3.876 1.46 5.834 5.787 4.373 9.663-1.132 3.006-3.987 4.858-7.019 4.858z" fill="#f9f7f8"/></g><g><path d="m311.693 225.088c-.772 0-1.557-.12-2.33-.373-3.938-1.286-6.087-5.52-4.801-9.458l5.334-16.333c.065-.2.139-.398.221-.592l9.87-23.35c1.612-3.815 6.013-5.601 9.828-3.988s5.601 6.013 3.988 9.828l-9.747 23.059-5.236 16.032c-1.032 3.165-3.97 5.175-7.127 5.175z" fill="#f9f7f8"/></g><g><path d="m359.872 261.248c-1.948 0-3.895-.754-5.364-2.257-2.896-2.962-2.841-7.71.121-10.606l13.959-13.646 18.198-17.681c2.972-2.885 7.719-2.817 10.606.153 2.886 2.971 2.818 7.719-.153 10.606l-18.182 17.665-13.943 13.629c-1.459 1.427-3.351 2.137-5.242 2.137z" fill="#f9f7f8"/></g><g><path d="m394.947 311.147c-3.096 0-5.994-1.932-7.077-5.019-1.371-3.909.686-8.188 4.594-9.56l15.962-5.6 23.507-9.147c3.86-1.504 8.207.409 9.709 4.27 1.502 3.86-.409 8.207-4.27 9.709l-23.625 9.193c-.079.031-.157.06-.237.088l-16.082 5.642c-.82.287-1.657.424-2.481.424z" fill="#f9f7f8"/></g></g><g><g id="XMLID_233_"><g><path d="m422.817 360.826c0 8.29-6.71 15-15 15-8.28 0-15-6.71-15-15 0-78.98-64.26-143.24-143.24-143.24s-143.24 64.26-143.24 143.24c0 8.29-6.72 15-15 15-8.29 0-15-6.71-15-15 0-95.53 77.71-173.24 173.24-173.24s173.24 77.71 173.24 173.24z" fill="#99e6fc"/></g></g></g></svg>